<svg
  xmlns="http://www.w3.org/2000/svg"
  xml:space="preserve"
  id="Capa_1"
  width="256.63"
  height="255.66"
  x="0"
  y="0"
  version="1.1"
>
  <style id="style2" type="text/css">
    .st5 {
      fill: #fff;
    }
  </style>
  <g id="g404" transform="translate(-764.68 -132.15)">
    <g id="g388">
      <path
        id="path352"
        d="M878.03 387.81H776.12c-6.31 0-11.43-5.12-11.43-11.43V274.47c0-6.31 5.12-11.43 11.43-11.43h101.92c6.31 0 11.43 5.12 11.43 11.43v101.92c-.01 6.3-5.12 11.42-11.44 11.42z"
        style="fill: #273a73"
      />
      <path
        id="path354"
        d="M1009.88 387.81H907.96c-6.31 0-11.43-5.12-11.43-11.43V274.47c0-6.31 5.12-11.43 11.43-11.43h101.92c6.31 0 11.43 5.12 11.43 11.43v101.92c-.01 6.3-5.12 11.42-11.43 11.42z"
        style="fill: #071c59"
      />
      <path
        id="path356"
        d="M1009.88 257.25H907.96c-6.31 0-11.43-5.12-11.43-11.43V143.91c0-6.31 5.12-11.43 11.43-11.43h101.92c6.31 0 11.43 5.12 11.43 11.43v101.92c-.01 6.3-5.12 11.42-11.43 11.42z"
        style="fill: #6176a5"
      />
      <path
        id="path358"
        d="M878.02 256.92H776.11c-6.31 0-11.43-5.12-11.43-11.43V143.58c0-6.31 5.12-11.43 11.43-11.43h101.92c6.31 0 11.43 5.12 11.43 11.43V245.5c-.01 6.31-5.13 11.42-11.44 11.42z"
        style="fill: #ed3827"
      />
      <g id="g362">
        <path
          id="path360"
          d="m973.56 299.93-13.81 26.95 2.37 9.4c.96 3.85 1.92 6.26 2.89 7.22.96.96 2.25 1.44 3.85 1.44 1.85 0 3.33-.53 4.42-1.59 1.1-1.06 1.75-2.76 1.94-5.11h1.37c.02.62.04 1.09.04 1.41 0 3.13-.95 5.87-2.85 8.22-1.23 1.56-2.84 2.33-4.81 2.33-1.38 0-2.62-.36-3.7-1.09-1.09-.73-1.97-1.81-2.67-3.24-1.09-2.32-1.83-4.29-2.22-5.92l-2.37-9.66-9.85 19.21h-6.48l14.18-27.91-2.74-10.92c-.59-2.39-1.3-3.96-2.13-4.7-.83-.74-1.99-1.11-3.5-1.11-1.65 0-2.99.52-4 1.56-1.01 1.04-1.62 2.7-1.81 5h-1.3c.1-4.34.97-7.59 2.63-9.74 1.21-1.58 2.76-2.37 4.66-2.37 1.97 0 3.52.7 4.63 2.11 1.11 1.41 1.95 3.27 2.52 5.59l2.74 11.25 9.33-18.33z"
          class="st5"
          style="fill: #fff"
        />
      </g>
      <path
        id="path366"
        d="M847.84 206.2c2.98-6.21 3.42-13.38.82-19.75-.56-1.37-.47-1.84 1.11-2.01 5.46-.59 4.5-1.26 5.83 3.94 3.29 12.8-2.91 26.38-14.66 32.52-11.85 6.19-26.71 3.57-35.38-6.25-.31-.35-.57-.74-.94-1.23 2.05-.47 4-.86 5.91-1.38 1.06-.29 1.46.53 2.04 1.01 8.77 7.27 22.16 6.87 30.38-.96.38-.36 1.01-1.16 1.24-1.39.23-.22 3.42-4.02 3.65-4.5z"
        class="st5"
        style="fill: #fff"
      />
      <path
        id="path368"
        d="M849.4 176.32c-2 .57-3.89 1.08-5.77 1.65-.93.28-1.37-.41-1.93-.84-13.31-10.4-32.63-3.9-36.87 12.42-1.19 4.59-1.03 9.17.76 13.57.65 1.59.12 1.77-1.26 1.89-5.24.46-4.53 1.29-5.71-4.13-2.7-12.45 3.71-25.64 15.08-31.46 11.72-6 26.08-3.62 34.78 5.78.32.33.59.7.92 1.12z"
        class="st5"
        style="fill: #fff"
      />
      <path
        id="path370"
        d="M852.36 212.52c1.06-2.06 2-3.77 2.81-5.54.34-.75.94-.91 1.57-1.13 5.37-1.87 8.45-5.94 8.31-10.99-.13-4.82-4.05-9.94-8.96-11.17-3.87-.97-7.69-.16-11.28 1.48-4.31 1.97-7.94 4.94-11.4 8.1-.97.88-1.5.87-2.42-.05-3.18-3.16-3.24-3.15.17-6.03 5.38-4.54 11.08-8.45 18.25-9.74 9.92-1.79 19.45 4.79 21.48 15.02 1.74 8.79-4.66 17.64-14.24 19.61-1.33.27-2.7.28-4.29.44z"
        class="st5"
        style="fill: #fff"
      />
      <path
        id="path372"
        d="M802.56 177.36c-1.08 1.99-2.06 3.82-3.06 5.64-.29.52-.86.59-1.38.77-5.74 1.98-9.03 7.29-8.19 13.21.75 5.26 5.49 9.05 11.52 9.27 4.98.18 9.33-1.52 13.26-4.43a74.1 74.1 0 0 0 5.67-4.65c.97-.88 1.53-.85 2.49.04 3.39 3.12 3.44 3.09-.15 6.07-5.01 4.16-10.3 7.72-16.93 8.85-9.63 1.64-18.83-3.55-21.35-12.19-3.22-11.03 5.31-22.71 16.58-22.68.46 0 .91.05 1.54.1z"
        class="st5"
        style="fill: #fff"
      />
      <path
        id="path374"
        d="M843.35 210.28c-.03.05-.35.01-.41 0-3.71-.83-5.9-2.84-8.86-5-5.22-3.82-9.66-8.54-14.57-12.71-3.53-2.99-7.23-5.71-11.43-7.67-.01-.16-.06-.3-.01-.38 3.83-6.11 2.72-5.14 7.82-2.09 5.39 3.23 9.87 7.61 14.49 11.82 4.81 4.39 9.94 9.29 16.23 11.54.73.26-2.82 3.82-3.26 4.49z"
        class="st5"
        style="fill: #fff"
      />
      <path
        id="path376"
        d="M944.91 211.25c-.17-1.38-.58-2.69-1.42-3.82-1.36-1.84-3.22-2.75-5.5-2.7-2.12.05-4.25.21-6.37.31-2 .09-4 .12-5.98-.2-1.84-.3-3.2-1.24-4.07-2.9-.72-1.38-1-2.87-1.04-4.4-.07-2.32.22-4.6.81-6.83.25-.96.58-1.9.87-2.85.07-.24.14-.48.22-.71.07-.2.15-.4.23-.6.03-.12.14-.2.19-.31 1.69-4.01 4.17-7.45 7.35-10.41.2-.19.41-.27.67-.29 2.19-.18 4.31-.68 6.34-1.54.96-.4 2.82-1.33 2.82-1.33.01-.05.68-.45.8-.55.52-.41 1.07-.79 1.57-1.22.51-.45.92-.98 1.1-1.66.28-1.02-.24-1.76-1.29-1.87-.61-.06-1.19.06-1.76.23-1.85.55-3.57 1.4-5.25 2.33-1.89 1.05-3.67 2.25-5.4 3.55-.1.07-.26.14-.35.11-.51-.2-1.01-.4-1.49-.66-.44-.24-.76-.66-.89-1.14-.23-.87-.12-1.7.29-2.48.55-1.04 1.46-1.67 2.48-2.18.1-.05.19-.1.29-.16 0 0 .01-.01 0-.01-.16-.32-.29-.62-.45-.91-.03-.06-.16-.13-.22-.11-1.27.42-2.53.88-3.59 1.72-2.2 1.73-2.15 4.98.13 6.61.54.39 1.16.65 1.83 1.02-.1.07-.23.13-.32.22-2.27 2.27-4.24 4.77-5.76 7.6-2.65 4.94-3.97 10.21-3.69 15.83.11 2.27.52 4.47 1.47 6.55 1.01 2.19 2.55 3.83 4.84 4.71 1.7.65 3.47.93 5.28.89 1.99-.05 3.97-.23 5.96-.35.98-.06 1.96-.19 2.95-.19 1.89 0 3.43 1.04 3.96 2.69.59 1.83.33 3.58-.86 5.12-1.07 1.38-2.46 2-4.22 1.62-.87-.19-1.73-.39-2.59-.58-.64-.14-1.27-.28-1.94-.15-1.21.25-1.97 1.29-1.71 2.44.2.89.83 1.43 1.63 1.79.84.38 1.73.43 2.64.42 4.27-.03 7.68-2.5 8.97-6.53.63-2.01.73-4.06.47-6.12z"
        class="st5"
        style="fill: #fff"
      />
      <g id="g384">
        <path
          id="path378"
          d="M966.58 216.67v1.05c-4.26-2.12-7.58-5.24-9.96-9.34-2.38-4.11-3.56-8.6-3.56-13.48 0-5.08 1.25-9.7 3.75-13.87s5.76-7.15 9.77-8.95v1.03a14.045 14.045 0 0 0-4.95 4.56c-1.29 1.93-2.25 4.37-2.89 7.33-.64 2.96-.96 6.05-.96 9.27 0 3.64.29 6.93.88 9.87.59 2.94 1.48 5.38 2.69 7.31 1.22 1.93 2.96 3.67 5.23 5.22z"
          class="st5"
          style="fill: #fff"
        />
        <path
          id="path380"
          d="M970.67 207.04c.27.13.56.24.88.33.32.08.8.13 1.43.13 1.47 0 2.68-.44 3.64-1.33.95-.89 1.43-2.16 1.43-3.84 0-1.04-.19-2.06-.58-3.08-.39-1.02-1.06-2.2-2.03-3.54-.77-1.07-1.5-2.16-2.21-3.28-.7-1.12-1.05-2.45-1.05-3.99 0-1.44.35-2.68 1.05-3.74.7-1.05 1.65-1.88 2.83-2.48 1.19-.6 2.48-.9 3.89-.9.97 0 1.92.12 2.86.35.93.23 1.71.66 2.33 1.28.62.62.93 1.53.93 2.73 0 .3-.08.66-.23 1.08-.15.42-.39.78-.73 1.08-.33.3-.79.45-1.35.45-.54 0-1-.19-1.41-.58-.4-.38-.6-.89-.6-1.53 0-.6.12-1.18.37-1.73s.59-1.09 1.03-1.63c-.63-.4-1.47-.6-2.51-.6-1.24 0-2.27.42-3.11 1.26-.84.84-1.25 2.01-1.25 3.51 0 .77.12 1.45.35 2.03.24.59.58 1.2 1.03 1.83.45.64.99 1.44 1.63 2.41.84 1.27 1.54 2.49 2.11 3.66.57 1.17.85 2.41.85 3.71 0 1.54-.39 2.9-1.18 4.09a8.016 8.016 0 0 1-3.13 2.78c-1.3.67-2.74 1-4.31 1-1.14 0-2.22-.17-3.26-.5-1.03-.33-1.88-.86-2.53-1.58-.65-.72-.98-1.68-.98-2.88 0-.47.14-.96.43-1.48.28-.52.79-.78 1.53-.78.81 0 1.37.33 1.71.98.33.65.5 1.38.5 2.18a6.9 6.9 0 0 1-.13 1.43c-.09.41-.17.8-.23 1.17z"
          class="st5"
          style="fill: #fff"
        />
        <path
          id="path382"
          d="M987.92 173.1v-1.03c4.26 2.11 7.58 5.21 9.96 9.32 2.38 4.11 3.56 8.6 3.56 13.48 0 5.08-1.25 9.71-3.75 13.89s-5.76 7.17-9.77 8.96v-1.05a14.02 14.02 0 0 0 4.97-4.56c1.29-1.93 2.25-4.37 2.88-7.32.63-2.95.94-6.05.94-9.28 0-3.62-.29-6.91-.87-9.86-.58-2.95-1.48-5.39-2.69-7.32-1.21-1.93-2.96-3.67-5.23-5.23z"
          class="st5"
          style="fill: #fff"
        />
      </g>
      <path
        id="path386"
        d="M867.18 314.49c-2.77-3.95-6.35-6.27-10.63-6.89-.67-.1-1.38-.14-2.24-.14-.58 0-1.17.02-1.76.04h-.11c0-.51-.01-1.02-.01-1.53-.01-2.02-.03-4.11.04-6.14.09-2.56-1.23-3.9-2.35-4.58-1.24-.75-2.9-1.68-4.73-2.29-5.91-1.96-12.01-2.48-17.73-2.76-1.5-.07-3.02-.11-4.51-.11-3.61 0-7.27.21-10.88.63-3.52.41-7.67 1.01-11.67 2.38-1.7.58-3.65 1.34-5.2 2.97-.45.47-1.38 1.46-1.37 3.01.02 5.2.02 10.4.02 15.6l-.01 29.51c0 .56-.01 1.12-.01 1.68-.01 1.13-.03 2.25.01 3.38.1 3.12 1.52 5.85 4.23 8.14 2.52 2.13 5.68 3.61 9.94 4.67 4.44 1.1 9.25 1.63 14.72 1.63.84 0 1.69-.01 2.53-.04 5.73-.16 10.33-.81 14.47-2.04 2.31-.69 5.7-1.89 8.51-4.39 2.85-2.53 4.2-5.52 4.02-8.88-.02-.36-.02-.73-.02-1.08h1.55c5.02 0 9.21-2.08 12.46-6.17 5.97-7.49 6.28-18.69.73-26.6zm-44.23-18.45c2.43 0 5 .1 7.66.3 3.57.27 7.76.75 11.79 2.26.35.13.71.3 1.06.5-.59.32-1.21.6-1.87.83-2.31.83-4.87 1.35-8.3 1.68-2.32.22-4.64.38-6.97.53-1.01.07-2.03.13-2.89.2-6.47-.14-11.37-.67-15.91-1.71-1.32-.3-2.61-.81-3.97-1.34l-.5-.19c.01 0 .02-.01.03-.01 1.76-.9 3.7-1.38 6.06-1.83 4.36-.82 8.87-1.22 13.81-1.22zm25.04 2.52c0-.02-.01-.04-.01-.06l.04.03zm-49.3-.02v.05c-.01-.01-.02-.01-.03-.02zm44.18 57.32c-3.18 1.82-6.04 1.93-8.77 2.39-3.41.57-14.08.94-15.95.8-3.79-.28-8.98-.28-13.5-2.28-2.6-1.15-2.85-1.55-4.04-3.31-.73-1.07-1.6-3.56-1.6-4.79V303.2c.14.08 6.6 2.85 11.55 3.63 3.64.58 7.62.84 12.58.84 3.74 0 8.66-.11 13.57-.97 3.42-.6 6.88-1.19 10.96-3.5 0 3.57-.11 33.29 0 44.67.02 3.72-1.26 5.97-4.8 7.99zm15.72-18.62c-1.13.82-2.45 1.27-4.03 1.37-.01 0-.11-.05-.34-.34-.61-.77-1.19-1.55-1.76-2.34-.01-5.69-.01-11.37 0-17.06 0-.01.01-.01.02-.02.13-.18.27-.35.42-.53.3-.36.59-.73.83-1.13.66-1.12.88-1.12 1.12-1.12.25 0 .6.06 1.08.18 2.83.72 4.83 2.53 6.28 5.7.72 1.57 1.07 3.38 1.12 5.58-.22 4.38-1.77 7.55-4.74 9.71z"
        class="st5"
        style="fill: #fff"
      />
    </g>
  </g>
</svg>
